<svg width="266" height="61" fill="none" xmlns="http://www.w3.org/2000/svg"><path d="M16.848 29.08H.144V17.56h16.704V.28h11.904v17.28h16.704v11.52H28.752v17.28H16.848V29.08zM37.653 47.75c0-1.18.212-2.243.638-3.19.425-.947.986-1.74 1.681-2.378a7.571 7.571 0 012.436-1.508 8.034 8.034 0 012.843-.522c1.14 0 2.136.184 2.986.551.87.367 1.596.87 2.175 1.508a6.3 6.3 0 011.306 2.233c.29.85.434 1.76.434 2.726 0 .445-.029.86-.087 1.247a7.959 7.959 0 01-.115.841h-9.194c.078.445.233.822.465 1.131.232.29.512.522.84.696.349.174.725.3 1.132.377.406.077.83.116 1.276.116.58 0 1.14-.068 1.681-.203.561-.155 1.16-.377 1.799-.667l1.623 2.958c-.87.56-1.827.986-2.87 1.276-1.044.27-2.02.406-2.93.406-1.14 0-2.213-.164-3.218-.493a7.901 7.901 0 01-2.582-1.479 7.264 7.264 0 01-1.71-2.407c-.407-.947-.61-2.02-.61-3.219zm9.976-1.74c0-.58-.165-1.073-.493-1.479-.33-.406-.919-.609-1.77-.609-.618 0-1.179.164-1.681.493-.484.31-.813.841-.986 1.595h4.93zM55.39 47.75c0-1.199.231-2.272.695-3.219a7.067 7.067 0 011.856-2.378 8.1 8.1 0 012.726-1.479 9.941 9.941 0 013.22-.522c1.14 0 2.184.174 3.131.522.948.348 1.73.812 2.35 1.392l-2.263 3.074c-.541-.367-1.053-.619-1.537-.754a4.378 4.378 0 00-1.392-.232c-1.102 0-1.991.329-2.668.986-.677.638-1.015 1.508-1.015 2.61 0 1.102.329 1.982.986 2.639.657.638 1.498.957 2.523.957.716 0 1.363-.126 1.943-.377.6-.251 1.15-.532 1.653-.841l1.972 3.132a8.766 8.766 0 01-2.987 1.595c-1.082.329-2.107.493-3.074.493-1.14 0-2.214-.164-3.219-.493a7.901 7.901 0 01-2.58-1.479 7.263 7.263 0 01-1.712-2.407c-.406-.947-.609-2.02-.609-3.219zM72.836 34.816h4.988v4.698l-.261 2.552c.483-.464 1.111-.899 1.885-1.305.773-.406 1.701-.609 2.784-.609 1.585 0 2.745.541 3.48 1.624.734 1.063 1.102 2.494 1.102 4.292V55h-4.988v-8.294c0-.812-.126-1.402-.377-1.769-.232-.367-.667-.551-1.305-.551-.464 0-.87.097-1.218.29a6.136 6.136 0 00-1.102.812V55h-4.988V34.816zM94.965 29.08H78.261V17.56h16.704V.28h11.904v17.28h16.704v11.52h-16.704v17.28H94.965V29.08zM129.748 55h-4.06l-.348-1.914h-.116a7.536 7.536 0 01-2.059 1.653c-.735.406-1.615.609-2.639.609-1.624 0-2.794-.532-3.509-1.595-.716-1.083-1.073-2.523-1.073-4.321V40.5h4.988v8.294c0 .812.106 1.402.319 1.769.232.367.676.551 1.334.551.425 0 .792-.077 1.102-.232.328-.174.686-.522 1.073-1.044V40.5h4.988V55zM133.158 47.75c0-1.18.213-2.243.638-3.19.426-.947.986-1.74 1.682-2.378a7.584 7.584 0 012.436-1.508 8.037 8.037 0 012.842-.522c1.141 0 2.137.184 2.987.551.87.367 1.595.87 2.175 1.508a6.3 6.3 0 011.305 2.233c.29.85.435 1.76.435 2.726 0 .445-.029.86-.087 1.247a7.723 7.723 0 01-.116.841h-9.193c.078.445.232.822.464 1.131.232.29.513.522.841.696.348.174.725.3 1.131.377.406.077.832.116 1.276.116.58 0 1.141-.068 1.682-.203.561-.155 1.16-.377 1.798-.667l1.624 2.958c-.87.56-1.827.986-2.871 1.276-1.044.27-2.02.406-2.929.406-1.14 0-2.213-.164-3.219-.493a7.904 7.904 0 01-2.581-1.479 7.277 7.277 0 01-1.711-2.407c-.406-.947-.609-2.02-.609-3.219zm9.976-1.74c0-.58-.164-1.073-.493-1.479-.328-.406-.918-.609-1.769-.609a3.01 3.01 0 00-1.682.493c-.483.31-.812.841-.986 1.595h4.93zM152.635 50.07c.851.503 1.682.899 2.494 1.189.812.29 1.643.435 2.494.435.87 0 1.479-.068 1.827-.203.348-.155.522-.377.522-.667 0-.193-.097-.358-.29-.493a2.672 2.672 0 00-.783-.406 9.12 9.12 0 00-1.16-.377c-.425-.135-.87-.27-1.334-.406a21.876 21.876 0 01-1.798-.609 8.18 8.18 0 01-1.624-.899 4.957 4.957 0 01-1.189-1.189 2.811 2.811 0 01-.464-1.595c0-.715.164-1.363.493-1.943a4.41 4.41 0 011.392-1.479c.619-.406 1.353-.715 2.204-.928.851-.232 1.808-.348 2.871-.348 1.373 0 2.591.222 3.654.667 1.063.425 1.982.88 2.755 1.363l-2.204 2.958a13.726 13.726 0 00-2.03-.957 5.874 5.874 0 00-2.059-.377c-.754 0-1.295.068-1.624.203-.329.116-.493.319-.493.609 0 .193.087.358.261.493.193.135.445.261.754.377.329.116.696.232 1.102.348.425.116.87.232 1.334.348.619.174 1.237.377 1.856.609.619.213 1.17.493 1.653.841.503.329.909.735 1.218 1.218.309.464.464 1.025.464 1.682 0 .677-.164 1.315-.493 1.914-.309.58-.783 1.092-1.421 1.537-.619.425-1.392.764-2.32 1.015-.909.232-1.972.348-3.19.348-1.257 0-2.523-.213-3.799-.638-1.257-.425-2.349-.947-3.277-1.566l2.204-3.074zM167.704 47.75c0-1.18.174-2.243.522-3.19.348-.947.802-1.74 1.363-2.378a5.799 5.799 0 011.943-1.508 5.167 5.167 0 012.233-.522c.812 0 1.479.135 2.001.406.522.251 1.005.6 1.45 1.044l-.174-2.088v-4.698h4.988V55h-4.06l-.348-1.334h-.116a6.021 6.021 0 01-1.769 1.218c-.658.31-1.315.464-1.972.464-.928 0-1.769-.174-2.523-.522a5.255 5.255 0 01-1.885-1.508c-.522-.657-.928-1.45-1.218-2.378-.29-.947-.435-2.01-.435-3.19zm5.104-.058c0 1.315.193 2.243.58 2.784.406.541.966.812 1.682.812.406 0 .763-.068 1.073-.203.328-.155.628-.435.899-.841v-5.336c-.29-.27-.6-.454-.928-.551a3.29 3.29 0 00-.986-.145c-.619 0-1.16.261-1.624.783-.464.522-.696 1.421-.696 2.697zM185.44 50.882c0-.812.165-1.527.493-2.146.348-.619.88-1.14 1.595-1.566.735-.445 1.682-.793 2.842-1.044 1.16-.251 2.572-.425 4.234-.522-.096-.522-.386-.899-.87-1.131-.464-.251-1.102-.377-1.914-.377-.618 0-1.256.106-1.914.319-.638.193-1.392.493-2.262.899l-1.74-3.248a15.816 15.816 0 013.364-1.421 12.715 12.715 0 013.538-.493c1.025 0 1.953.135 2.784.406.851.251 1.566.657 2.146 1.218.6.541 1.054 1.247 1.363 2.117.329.85.493 1.866.493 3.045V55h-4.06l-.348-1.508h-.116c-.715.522-1.488.967-2.32 1.334a6.69 6.69 0 01-2.61.522c-.754 0-1.421-.116-2.001-.348a4.715 4.715 0 01-1.479-.986 4.12 4.12 0 01-.928-1.421 5.057 5.057 0 01-.29-1.711zm4.756-.406c0 .696.522 1.044 1.566 1.044.58 0 1.102-.106 1.566-.319.464-.232.89-.493 1.276-.783v-1.856c-.889.039-1.624.116-2.204.232-.56.097-1.005.232-1.334.406-.328.174-.56.367-.696.58a1.43 1.43 0 00-.174.696zM204.076 56.392c.367.116.715.174 1.044.174.773 0 1.363-.135 1.769-.406.425-.251.735-.6.928-1.044l.232-.638-6.09-13.978h4.93l2.03 5.568c.251.696.474 1.411.667 2.146.213.715.425 1.47.638 2.262h.116c.174-.735.367-1.47.58-2.204.232-.735.454-1.47.667-2.204l1.74-5.568h4.698l-5.452 14.268c-.387.986-.793 1.837-1.218 2.552-.425.715-.918 1.305-1.479 1.769a5.086 5.086 0 01-1.885 1.015c-.696.232-1.518.348-2.465.348-.445 0-.86-.029-1.247-.087a5.872 5.872 0 01-1.073-.203l.87-3.77zM222.19 50.07c.85.503 1.682.899 2.494 1.189.812.29 1.643.435 2.494.435.87 0 1.479-.068 1.827-.203.348-.155.522-.377.522-.667 0-.193-.097-.358-.29-.493a2.698 2.698 0 00-.783-.406 9.174 9.174 0 00-1.16-.377 58.56 58.56 0 00-1.334-.406c-.6-.174-1.199-.377-1.798-.609a8.153 8.153 0 01-1.624-.899 4.939 4.939 0 01-1.189-1.189 2.804 2.804 0 01-.464-1.595c0-.715.164-1.363.493-1.943a4.39 4.39 0 011.392-1.479c.618-.406 1.353-.715 2.204-.928.85-.232 1.807-.348 2.871-.348 1.372 0 2.59.222 3.654.667 1.063.425 1.981.88 2.755 1.363l-2.204 2.958a13.774 13.774 0 00-2.03-.957 5.874 5.874 0 00-2.059-.377c-.754 0-1.296.068-1.624.203-.329.116-.493.319-.493.609 0 .193.087.358.261.493.193.135.444.261.754.377.328.116.696.232 1.102.348.425.116.87.232 1.334.348a23.22 23.22 0 011.856.609 6.353 6.353 0 011.653.841 4.08 4.08 0 011.218 1.218c.309.464.464 1.025.464 1.682 0 .677-.165 1.315-.493 1.914-.31.58-.783 1.092-1.421 1.537-.619.425-1.392.764-2.32 1.015-.909.232-1.972.348-3.19.348-1.257 0-2.523-.213-3.799-.638-1.257-.425-2.349-.947-3.277-1.566l2.204-3.074zM246.973 60.22a20.015 20.015 0 01-4.408-5.887c-1.063-2.223-1.595-4.688-1.595-7.395s.532-5.162 1.595-7.366a19.89 19.89 0 014.408-5.916l2.755 2.146a22.47 22.47 0 00-2.117 2.552 15.37 15.37 0 00-1.45 2.639c-.367.89-.638 1.827-.812 2.813-.174.967-.261 2.01-.261 3.132 0 1.121.087 2.175.261 3.161.174.967.445 1.904.812 2.813.387.89.87 1.76 1.45 2.61.6.85 1.305 1.701 2.117 2.552l-2.755 2.146zM257.141 58.074a20.195 20.195 0 002.088-2.552c.599-.85 1.083-1.72 1.45-2.61.387-.909.667-1.846.841-2.813.174-.986.261-2.04.261-3.161s-.087-2.165-.261-3.132a12.44 12.44 0 00-.841-2.813 13.11 13.11 0 00-1.45-2.639 20.195 20.195 0 00-2.088-2.552l2.755-2.146a19.46 19.46 0 014.379 5.916c1.083 2.204 1.624 4.66 1.624 7.366 0 2.707-.541 5.172-1.624 7.395-1.063 2.204-2.523 4.166-4.379 5.887l-2.755-2.146z" fill="#fff"/></svg>