<svg width="266" height="59" viewBox="0 0 266 59" fill="none" xmlns="http://www.w3.org/2000/svg">
<path d="M16.848 29H0.144043V17.48H16.848V0.200012H28.752V17.48H45.456V29H28.752V46.28H16.848V29Z" fill="black"/>
<path d="M37.6525 45.75C37.6525 44.5707 37.8652 43.5073 38.2905 42.56C38.7159 41.6127 39.2765 40.82 39.9725 40.182C40.6879 39.5247 41.4999 39.022 42.4085 38.674C43.3365 38.326 44.2839 38.152 45.2505 38.152C46.3912 38.152 47.3869 38.3357 48.2375 38.703C49.1075 39.0704 49.8325 39.573 50.4125 40.211C50.9925 40.849 51.4275 41.5933 51.7175 42.444C52.0075 43.2947 52.1525 44.2033 52.1525 45.17C52.1525 45.6147 52.1235 46.011 52.0655 46.359C52.0269 46.707 51.9882 46.968 51.9495 47.142H42.7565C43.0079 48.07 43.4622 48.708 44.1195 49.056C44.7962 49.404 45.5792 49.578 46.4685 49.578C47.0485 49.578 47.6092 49.5103 48.1505 49.375C48.7112 49.2203 49.3105 48.998 49.9485 48.708L51.5725 51.666C50.7025 52.2267 49.7455 52.652 48.7015 52.942C47.6575 53.2127 46.6812 53.348 45.7725 53.348C44.6319 53.348 43.5589 53.1837 42.5535 52.855C41.5675 52.507 40.7072 52.014 39.9725 51.376C39.2572 50.7187 38.6869 49.9164 38.2615 48.969C37.8555 48.0217 37.6525 46.9487 37.6525 45.75ZM47.6285 44.126C47.6285 43.5073 47.4642 42.9853 47.1355 42.56C46.8069 42.1347 46.2172 41.922 45.3665 41.922C44.7479 41.922 44.1872 42.0863 43.6845 42.415C43.1819 42.7437 42.8532 43.314 42.6985 44.126H47.6285Z" fill="black"/>
<path d="M55.3892 45.75C55.3892 44.5513 55.6212 43.4783 56.0852 42.531C56.5492 41.5837 57.1679 40.791 57.9412 40.153C58.7339 39.4957 59.6426 39.0027 60.6672 38.674C61.6919 38.326 62.7649 38.152 63.8862 38.152C65.0269 38.152 66.0709 38.326 67.0182 38.674C67.9656 39.022 68.7486 39.486 69.3672 40.066L67.1052 43.14C66.5639 42.7727 66.0515 42.5214 65.5682 42.386C65.1042 42.2313 64.6402 42.154 64.1762 42.154C63.0742 42.154 62.1849 42.4827 61.5082 43.14C60.8315 43.778 60.4932 44.648 60.4932 45.75C60.4932 46.852 60.8219 47.7317 61.4792 48.389C62.1365 49.027 62.9776 49.346 64.0022 49.346C64.7176 49.346 65.3652 49.2204 65.9452 48.969C66.5446 48.7177 67.0956 48.4373 67.5982 48.128L69.5702 51.26C68.6615 51.9947 67.6659 52.5264 66.5832 52.855C65.5005 53.1837 64.4759 53.348 63.5092 53.348C62.3685 53.348 61.2955 53.1837 60.2902 52.855C59.3042 52.507 58.4439 52.014 57.7092 51.376C56.9939 50.7187 56.4235 49.9164 55.9982 48.969C55.5922 48.0217 55.3892 46.9487 55.3892 45.75Z" fill="black"/>
<path d="M72.8359 32.816H77.8239V37.514L77.5629 40.066C78.0462 39.602 78.6746 39.167 79.4479 38.761C80.2212 38.355 81.1492 38.152 82.2319 38.152C83.8172 38.152 84.9772 38.6933 85.7119 39.776C86.4466 40.8393 86.8139 42.27 86.8139 44.068V53H81.8259V44.706C81.8259 43.894 81.7002 43.3043 81.4489 42.937C81.2169 42.5697 80.7819 42.386 80.1439 42.386C79.6799 42.386 79.2739 42.4827 78.9259 42.676C78.5779 42.8694 78.2106 43.14 77.8239 43.488V53H72.8359V32.816Z" fill="black"/>
<path d="M94.9652 29H78.2612V17.48H94.9652V0.200012H106.869V17.48H123.573V29H106.869V46.28H94.9652V29Z" fill="black"/>
<path d="M129.748 53H125.688L125.34 51.086H125.224C124.605 51.782 123.919 52.333 123.165 52.739C122.43 53.145 121.55 53.348 120.526 53.348C118.902 53.348 117.732 52.8163 117.017 51.753C116.301 50.6703 115.944 49.23 115.944 47.432V38.5H120.932V46.794C120.932 47.606 121.038 48.1957 121.251 48.563C121.483 48.9303 121.927 49.114 122.585 49.114C123.01 49.114 123.377 49.0367 123.687 48.882C124.015 48.708 124.373 48.36 124.76 47.838V38.5H129.748V53Z" fill="black"/>
<path d="M133.158 45.75C133.158 44.5707 133.371 43.5073 133.796 42.56C134.222 41.6127 134.782 40.82 135.478 40.182C136.194 39.5247 137.006 39.022 137.914 38.674C138.842 38.326 139.79 38.152 140.756 38.152C141.897 38.152 142.893 38.3357 143.743 38.703C144.613 39.0704 145.338 39.573 145.918 40.211C146.498 40.849 146.933 41.5933 147.223 42.444C147.513 43.2947 147.658 44.2033 147.658 45.17C147.658 45.6147 147.629 46.011 147.571 46.359C147.533 46.707 147.494 46.968 147.455 47.142H138.262C138.514 48.07 138.968 48.708 139.625 49.056C140.302 49.404 141.085 49.578 141.974 49.578C142.554 49.578 143.115 49.5103 143.656 49.375C144.217 49.2203 144.816 48.998 145.454 48.708L147.078 51.666C146.208 52.2267 145.251 52.652 144.207 52.942C143.163 53.2127 142.187 53.348 141.278 53.348C140.138 53.348 139.065 53.1837 138.059 52.855C137.073 52.507 136.213 52.014 135.478 51.376C134.763 50.7187 134.193 49.9164 133.767 48.969C133.361 48.0217 133.158 46.9487 133.158 45.75ZM143.134 44.126C143.134 43.5073 142.97 42.9853 142.641 42.56C142.313 42.1347 141.723 41.922 140.872 41.922C140.254 41.922 139.693 42.0863 139.19 42.415C138.688 42.7437 138.359 43.314 138.204 44.126H143.134Z" fill="black"/>
<path d="M152.635 48.07C153.486 48.5727 154.317 48.969 155.129 49.259C155.941 49.549 156.772 49.694 157.623 49.694C158.493 49.694 159.102 49.6263 159.45 49.491C159.798 49.3363 159.972 49.114 159.972 48.824C159.972 48.6307 159.875 48.4664 159.682 48.331C159.489 48.1763 159.228 48.041 158.899 47.925C158.57 47.7897 158.184 47.664 157.739 47.548C157.314 47.4127 156.869 47.2773 156.405 47.142C155.806 46.968 155.206 46.765 154.607 46.533C154.008 46.2817 153.466 45.982 152.983 45.634C152.5 45.286 152.103 44.8897 151.794 44.445C151.485 43.981 151.33 43.4493 151.33 42.85C151.33 42.1347 151.494 41.487 151.823 40.907C152.152 40.327 152.616 39.834 153.215 39.428C153.834 39.022 154.568 38.7127 155.419 38.5C156.27 38.268 157.227 38.152 158.29 38.152C159.663 38.152 160.881 38.3743 161.944 38.819C163.007 39.2444 163.926 39.6987 164.699 40.182L162.495 43.14C161.818 42.7533 161.142 42.4343 160.465 42.183C159.788 41.9317 159.102 41.806 158.406 41.806C157.652 41.806 157.111 41.8737 156.782 42.009C156.453 42.125 156.289 42.328 156.289 42.618C156.289 42.8113 156.376 42.9757 156.55 43.111C156.743 43.2463 156.995 43.372 157.304 43.488C157.633 43.604 158 43.72 158.406 43.836C158.831 43.952 159.276 44.068 159.74 44.184C160.359 44.358 160.977 44.561 161.596 44.793C162.215 45.0057 162.766 45.286 163.249 45.634C163.752 45.9627 164.158 46.3687 164.467 46.852C164.776 47.316 164.931 47.8767 164.931 48.534C164.931 49.2107 164.767 49.8487 164.438 50.448C164.129 51.028 163.655 51.5403 163.017 51.985C162.398 52.4104 161.625 52.7487 160.697 53C159.788 53.232 158.725 53.348 157.507 53.348C156.25 53.348 154.984 53.1353 153.708 52.71C152.451 52.2847 151.359 51.7627 150.431 51.144L152.635 48.07Z" fill="black"/>
<path d="M167.704 45.75C167.704 44.5707 167.878 43.5073 168.226 42.56C168.574 41.6127 169.028 40.82 169.589 40.182C170.149 39.5247 170.797 39.022 171.532 38.674C172.266 38.326 173.011 38.152 173.765 38.152C174.577 38.152 175.244 38.2873 175.766 38.558C176.288 38.8093 176.771 39.1573 177.216 39.602L177.042 37.514V32.816H182.03V53H177.97L177.622 51.666H177.506C177.003 52.1687 176.413 52.5747 175.737 52.884C175.079 53.1934 174.422 53.348 173.765 53.348C172.837 53.348 171.996 53.174 171.242 52.826C170.507 52.478 169.879 51.9753 169.357 51.318C168.835 50.6607 168.429 49.868 168.139 48.94C167.849 47.9927 167.704 46.9293 167.704 45.75ZM172.808 45.692C172.808 47.0067 173.001 47.9347 173.388 48.476C173.794 49.0173 174.354 49.288 175.07 49.288C175.476 49.288 175.833 49.2203 176.143 49.085C176.471 48.9303 176.771 48.65 177.042 48.244V42.908C176.752 42.6373 176.442 42.4537 176.114 42.357C175.804 42.2603 175.476 42.212 175.128 42.212C174.509 42.212 173.968 42.473 173.504 42.995C173.04 43.517 172.808 44.416 172.808 45.692Z" fill="black"/>
<path d="M185.44 48.882C185.44 48.07 185.605 47.3547 185.933 46.736C186.281 46.1173 186.813 45.5953 187.528 45.17C188.263 44.7253 189.21 44.3773 190.37 44.126C191.53 43.8747 192.942 43.7007 194.604 43.604C194.508 43.082 194.218 42.705 193.734 42.473C193.27 42.2217 192.632 42.096 191.82 42.096C191.202 42.096 190.564 42.2024 189.906 42.415C189.268 42.6083 188.514 42.908 187.644 43.314L185.904 40.066C187.006 39.4473 188.128 38.9737 189.268 38.645C190.409 38.3163 191.588 38.152 192.806 38.152C193.831 38.152 194.759 38.2873 195.59 38.558C196.441 38.8093 197.156 39.2154 197.736 39.776C198.336 40.3173 198.79 41.023 199.099 41.893C199.428 42.7437 199.592 43.7587 199.592 44.938V53H195.532L195.184 51.492H195.068C194.353 52.014 193.58 52.4587 192.748 52.826C191.917 53.174 191.047 53.348 190.138 53.348C189.384 53.348 188.717 53.232 188.137 53C187.557 52.7487 187.064 52.42 186.658 52.014C186.252 51.608 185.943 51.1343 185.73 50.593C185.537 50.0517 185.44 49.4813 185.44 48.882ZM190.196 48.476C190.196 49.172 190.718 49.52 191.762 49.52C192.342 49.52 192.864 49.4137 193.328 49.201C193.792 48.969 194.218 48.708 194.604 48.418V46.562C193.715 46.6007 192.98 46.678 192.4 46.794C191.84 46.8907 191.395 47.026 191.066 47.2C190.738 47.374 190.506 47.5673 190.37 47.78C190.254 47.9927 190.196 48.2247 190.196 48.476Z" fill="black"/>
<path d="M204.076 54.392C204.443 54.508 204.791 54.566 205.12 54.566C205.893 54.566 206.483 54.4307 206.889 54.16C207.314 53.9087 207.624 53.5607 207.817 53.116L208.049 52.478L201.959 38.5H206.889L208.919 44.068C209.17 44.764 209.393 45.4793 209.586 46.214C209.799 46.9293 210.011 47.6833 210.224 48.476H210.34C210.514 47.7413 210.707 47.0067 210.92 46.272C211.152 45.5374 211.374 44.8027 211.587 44.068L213.327 38.5H218.025L212.573 52.768C212.186 53.754 211.78 54.6047 211.355 55.32C210.93 56.0353 210.437 56.625 209.876 57.089C209.335 57.553 208.706 57.8914 207.991 58.104C207.295 58.336 206.473 58.452 205.526 58.452C205.081 58.452 204.666 58.423 204.279 58.365C203.892 58.3263 203.535 58.2587 203.206 58.162L204.076 54.392Z" fill="black"/>
<path d="M222.19 48.07C223.04 48.5727 223.872 48.969 224.684 49.259C225.496 49.549 226.327 49.694 227.178 49.694C228.048 49.694 228.657 49.6263 229.005 49.491C229.353 49.3363 229.527 49.114 229.527 48.824C229.527 48.6307 229.43 48.4664 229.237 48.331C229.043 48.1763 228.782 48.041 228.454 47.925C228.125 47.7897 227.738 47.664 227.294 47.548C226.868 47.4127 226.424 47.2773 225.96 47.142C225.36 46.968 224.761 46.765 224.162 46.533C223.562 46.2817 223.021 45.982 222.538 45.634C222.054 45.286 221.658 44.8897 221.349 44.445C221.039 43.981 220.885 43.4493 220.885 42.85C220.885 42.1347 221.049 41.487 221.378 40.907C221.706 40.327 222.17 39.834 222.77 39.428C223.388 39.022 224.123 38.7127 224.974 38.5C225.824 38.268 226.781 38.152 227.845 38.152C229.217 38.152 230.435 38.3743 231.499 38.819C232.562 39.2444 233.48 39.6987 234.254 40.182L232.05 43.14C231.373 42.7533 230.696 42.4343 230.02 42.183C229.343 41.9317 228.657 41.806 227.961 41.806C227.207 41.806 226.665 41.8737 226.337 42.009C226.008 42.125 225.844 42.328 225.844 42.618C225.844 42.8113 225.931 42.9757 226.105 43.111C226.298 43.2463 226.549 43.372 226.859 43.488C227.187 43.604 227.555 43.72 227.961 43.836C228.386 43.952 228.831 44.068 229.295 44.184C229.913 44.358 230.532 44.561 231.151 44.793C231.769 45.0057 232.32 45.286 232.804 45.634C233.306 45.9627 233.712 46.3687 234.022 46.852C234.331 47.316 234.486 47.8767 234.486 48.534C234.486 49.2107 234.321 49.8487 233.993 50.448C233.683 51.028 233.21 51.5403 232.572 51.985C231.953 52.4104 231.18 52.7487 230.252 53C229.343 53.232 228.28 53.348 227.062 53.348C225.805 53.348 224.539 53.1353 223.263 52.71C222.006 52.2847 220.914 51.7627 219.986 51.144L222.19 48.07Z" fill="black"/>
<path d="M246.973 58.22C245.117 56.4994 243.648 54.537 242.565 52.333C241.502 50.1097 240.97 47.6447 240.97 44.938C240.97 42.2313 241.502 39.776 242.565 37.572C243.648 35.3487 245.117 33.3767 246.973 31.656L249.728 33.802C248.916 34.6527 248.211 35.5033 247.611 36.354C247.031 37.2047 246.548 38.0843 246.161 38.993C245.794 39.8823 245.523 40.82 245.349 41.806C245.175 42.7727 245.088 43.8167 245.088 44.938C245.088 46.0593 245.175 47.113 245.349 48.099C245.523 49.0657 245.794 50.0033 246.161 50.912C246.548 51.8013 247.031 52.6714 247.611 53.522C248.211 54.3727 248.916 55.2233 249.728 56.074L246.973 58.22Z" fill="black"/>
<path d="M257.141 56.074C257.953 55.2233 258.649 54.3727 259.229 53.522C259.828 52.6714 260.312 51.8013 260.679 50.912C261.066 50.0033 261.346 49.0657 261.52 48.099C261.694 47.113 261.781 46.0593 261.781 44.938C261.781 43.8167 261.694 42.7727 261.52 41.806C261.346 40.82 261.066 39.8823 260.679 38.993C260.312 38.0843 259.828 37.2047 259.229 36.354C258.649 35.5033 257.953 34.6527 257.141 33.802L259.896 31.656C261.752 33.3767 263.212 35.3487 264.275 37.572C265.358 39.776 265.899 42.2313 265.899 44.938C265.899 47.6447 265.358 50.1097 264.275 52.333C263.212 54.537 261.752 56.4994 259.896 58.22L257.141 56.074Z" fill="black"/>
</svg>
